<svg preserveAspectRatio="none" overflow="visible" style="display: block;" width="9.50726" height="17.1254" viewBox="0 0 9.50726 17.1254" fill="none" xmlns="http://www.w3.org/2000/svg">
<g id="Frame 3">
<path id="Vector" d="M7.61899 3.07809H9.50726V0.204385C9.50726 0.188531 9.49558 0.17518 9.47973 0.172677C5.34523 -0.469818 2.80612 0.608239 2.80612 4.63093V6.66105C2.80612 6.69109 2.78192 6.71528 2.75188 6.71528H0V9.97032H2.75188C2.78192 9.97032 2.80612 9.99451 2.80612 10.0246V17.1254H6.21134V10.0246C6.21134 9.99451 6.23554 9.97032 6.26558 9.97032H8.98659C8.98659 9.97032 8.99077 9.96865 8.99077 9.96615L9.38544 6.71445H6.26558C6.23554 6.71445 6.21134 6.69025 6.21134 6.66021V4.63009C6.21134 3.51783 6.64357 3.07726 7.61899 3.07726V3.07809Z" fill="#3A6033"/>
</g>
</svg>
