<svg preserveAspectRatio="none" overflow="visible" style="display: block;" width="17.7526" height="23.4184" viewBox="0 0 17.7526 23.4184" fill="none" xmlns="http://www.w3.org/2000/svg">
<g id="Kanat Sol">
<path id="Kanat Maskesi" d="M10.3291 0.0556119C7.91644 0.417276 5.79265 2.20581 4.17876 4.23807C3.30956 5.3324 2.54883 6.54317 1.86264 7.80881C1.50669 8.4657 1.17161 9.13827 0.84995 9.82128C0.665824 10.2128 -0.0382529 11.2799 0.00162866 11.7233L0.0105741 11.8214C0.1742 12.4847 0.900641 13.3148 1.25026 13.8712C1.7553 14.6733 2.27413 15.4631 2.8157 16.232C3.96108 17.8578 5.20114 19.4127 6.60333 20.7264C9.72751 23.6522 14.2818 24.947 16.8827 20.6667C17.8007 19.157 18.1623 16.943 17.1168 15.3366C15.5256 12.8896 10.9795 13.0527 7.61975 14.505C8.32234 13.2409 12.9669 12.9706 14.4511 11.7811C16.8119 9.88697 16.8999 6.68313 15.785 3.6144C14.9311 1.26601 13.0955 0.000373234 11.0704 0C10.8252 0 10.5784 0.017542 10.3291 0.0556119Z" fill="#D8D8D8"/>
<g id="Kanat">
<mask id="mask0_0_225" style="mask-type:luminance" maskUnits="userSpaceOnUse" x="0" y="0" width="18" height="24">
<g id="Kanat Formu">
<path id="Form" d="M10.3291 0.0556119C7.91644 0.417276 5.79265 2.20581 4.17876 4.23807C3.30956 5.3324 2.54883 6.54317 1.86264 7.80881C1.50669 8.4657 1.17161 9.13827 0.84995 9.82128C0.665824 10.2128 -0.0382529 11.2799 0.00162866 11.7233L0.0105741 11.8214C0.1742 12.4847 0.900641 13.3148 1.25026 13.8712C1.7553 14.6733 2.27413 15.4631 2.8157 16.232C3.96108 17.8578 5.20114 19.4127 6.60333 20.7264C9.72751 23.6522 14.2818 24.947 16.8827 20.6667C17.8007 19.157 18.1623 16.943 17.1168 15.3366C15.5256 12.8896 10.9795 13.0527 7.61975 14.505C8.32234 13.2409 12.9669 12.9706 14.4511 11.7811C16.8119 9.88697 16.8999 6.68313 15.785 3.6144C14.9311 1.26601 13.0955 0.000373234 11.0704 0C10.8252 0 10.5784 0.017542 10.3291 0.0556119Z" fill="white"/>
</g>
</mask>
<g mask="url(#mask0_0_225)">
<path id="Renk Ge&#195;&#167;i&#197;&#159;i" fill-rule="evenodd" clip-rule="evenodd" d="M17.393 -2.08284L-2.92212 -0.27006L-0.574262 26.2459L19.7408 24.4331L17.393 -2.08284Z" fill="white"/>
</g>
</g>
</g>
</svg>
